Patient4_TMGait_0pt3_03_right_29_EMG.mot
version=1
nRows=39
nColumns=33
inDegrees=no
endheader
time	1LAddLong	2LGlutMax	3LGlutMed	4LIliopsoas	5LSemiMemb	6LBicFemLong	7LRecFem	8LVastMed	9LVastLat	10LGasMed	11LTibAnt	12lTibPost	13LPeroneusLong	14LSol	15LExtDigLong	16LFlexDigLong	17RAddLong	18RGlutMax	19RGlutMed	20RIliopsoas	21RSemiMemb	22RBicFemLong	23RRecFem	24RVastMed	25RVastLat	26RGasMed	27RTibAnt	28RTibPost	29RPeroneusLong	30RSol	31RExtDigLong	32RFlexDigLong
55.43	-0.005188	-0.022888	0.15045	0.017242	0.10391	-0.005035	0.040741	0.008087	0.11093	0.007324	0.03891	0.001221	-0.00885	-0.011444	-0.1268	-0.011292	0.000763	-0.23025	0.072174	0.090637	0.14633	-0.017395	0.13977	-0.001068	-0.33279	0.028076	0.35461	-0.00351	-0.21439	-0.3595	-0.00061	-0.006256
55.431	-0.014954	-0.005646	0.13199	0.000153	0.044403	0.019379	0.016479	0.010071	0.049438	-0.00885	-0.05249	0.003967	0.018616	-0.0177	0.017242	0.001984	0.009766	-0.19989	0.034943	0.044861	0.047302	-0.044098	-0.33218	-0.078125	-0.23239	0.011749	-0.051727	-0.006256	-1.162	-0.23987	-0.002441	-0.012207
55.432	-0.021973	-0.002136	0.10727	-0.004272	0.004425	-0.019836	0.005188	0.00824	0.000763	-0.002136	-0.021515	-0.004425	0.003204	0.009308	-0.10635	-0.005646	-0.008545	-0.18601	-0.015717	0.031738	0.029602	-0.038147	-0.74692	-0.062714	-0.002136	0.00351	-0.085297	-0.013275	-0.96344	-0.063782	-0.00412	-0.011139
55.433	-0.017853	-0.005493	0.054626	0.016632	-0.020294	-0.01709	-0.012665	0.010681	0.01297	0.005646	0.02533	0.007019	-0.019531	0.016174	-0.020752	0.006409	0.00473	-0.12299	-0.014648	0.036316	0.018921	-0.062866	-0.54291	-0.013428	0.06485	-0.001068	-0.17197	-0.004272	0.75836	0.023956	0	-0.011749
55.434	-0.007172	0.003357	0.031586	0.018768	-0.041962	0.017395	0.000153	0.012207	0.036621	-0.001526	0.050049	0.006409	-0.010223	0.050812	0.035706	0.002594	0.030975	-0.16571	0.00885	0.060425	-0.009613	-0.059967	-0.31738	-0.054321	0.063477	-0.00061	-0.28336	-0.000916	0.68375	-0.013885	-0.000305	-0.014801
55.435	0.00473	-0.02243	0.052795	0.000153	-0.090942	-0.017395	0.003662	0.006866	0.067444	0.003052	0.071106	0.006561	-0.017395	0.048828	0.14801	0.00824	0.02533	-0.16388	0.027771	0.026093	0.000916	-0.058441	-0.28519	-0.020599	0.099335	-0.011139	-0.21271	-0.004578	0.4042	0.13611	0.001373	-0.021973
55.436	0.005646	-0.032806	0.045319	0.000763	-0.14786	-0.031128	0.037689	0.005798	0.037994	0.005951	0.021515	0.004425	-0.036774	0.023499	-0.079651	0.010681	0.028992	-0.12009	-0.020752	0.026703	-0.000916	-0.075226	-0.19867	0.018768	0.11292	-0.010834	-0.016479	-0.004578	0.67032	0.20996	-0.001068	-0.015717
55.437	-0.002289	-0.026398	0.039368	0.005493	-0.14862	0.016174	0.031433	0.012054	0.010071	0.00946	-0.021362	0.00351	-0.018616	-0.036469	-0.12909	-0.000458	0.018005	-0.15518	-0.063171	0.012817	-0.016022	-0.023651	-0.077209	0.024719	0.20706	-0.010071	-0.058746	-0.00473	0.46753	0.10773	0.000153	-0.005798
55.438	-0.019989	-0.030365	0.007782	-0.001221	-0.1297	0.010834	0.031128	0.008392	0.019836	0.013428	0.006256	0.005341	-0.021973	-0.10468	-0.10056	0.007019	0.02182	-0.20157	-0.29114	-0.012207	-0.005646	-0.002594	-0.036774	0.018921	0.17929	-0.004425	-0.38986	-0.001984	0.44998	0.02594	-0.003662	-0.009155
55.439	-0.014954	-0.007935	0.02182	0.015106	-0.088654	-0.053711	0.039978	0.011139	-0.010223	0.020294	0.034332	0.010071	-0.00473	0.009308	-0.023193	-0.002136	0.02121	-0.24323	-0.55481	-0.017853	-0.020142	0.020294	0.008545	0.075226	-0.037231	-0.001221	-0.58929	-0.003204	0.027313	-0.058594	-0.001526	-0.014954
55.44	-0.006714	-0.012817	-0.009766	0.010071	-0.019073	-0.096436	0.04364	0.014038	-0.014191	0.023651	0.028687	-0.000153	-0.041504	0.068054	0.058746	-0.00412	0.018005	-0.1387	-0.39475	-0.001984	-0.018463	-0.007324	0.11749	0.1796	-0.071259	0.004272	-0.98404	0.000153	-0.34073	-0.12573	0.000763	-0.013428
55.441	0.011902	0.022888	-0.025482	0.02533	0.098572	-0.078888	0.005035	0.016937	-0.034332	-0.00885	0.050049	-0.00351	-0.014496	0.11353	0.35797	0.003052	0.006409	-0.15259	-0.15182	-0.038605	-0.017548	-0.009308	0.1799	0.1886	0.40543	0.005493	-0.06012	-0.001068	0.02182	-0.10025	-0.003052	-0.009155
55.442	0.027313	-0.014801	-0.001068	-0.003357	0.12482	-0.034485	-0.051422	0.01709	-0.034637	-0.029907	0.040436	0.006866	0.054016	0.086823	0.05188	0.010223	0.035706	-0.11215	0.49957	-0.058441	-0.022888	-0.017242	0.15106	0.18616	0.62805	0.021362	0.61539	-0.000916	0.48828	-0.17075	0.001068	-0.001678
55.443	0.054169	0.00061	0.039063	-0.010834	0.095367	-0.005493	-0.095978	0.003815	0.009308	-0.019836	0.021667	0.004425	0.069275	-0.025024	0.12756	0.007324	0.03418	-0.13702	0.99091	-0.10834	0.003967	-0.030823	0.12085	0.058289	0.47958	0.012817	0.35828	-0.000916	-0.26749	-0.049438	0.001984	-0.007782
55.444	0.067291	0	0.061188	-0.005951	0.081635	0.019379	-0.12863	0.003204	0.021515	-0.003967	0.044861	0.001221	0.031433	-0.10681	-0.20874	0.001068	0.02655	-0.233	0.88638	-0.037384	0.032349	0.037842	-0.019989	-0.054169	0.22156	-0.008545	0.30212	-0.010529	0.15625	0.19257	-0.009003	-0.019531
55.445	0.065155	0.000763	0.11627	0.011749	0.11124	0.000305	-0.10407	0.003662	0.038605	-0.013123	-0.20004	0.006714	-0.056763	-0.041046	-0.032043	0.009613	0.007324	-0.19058	-0.088959	0.026245	-0.022736	0.072174	-0.27527	-0.099792	-0.068359	-0.011444	0.24597	-0.003357	0.2684	0.35904	0.00061	-0.025635
55.446	0.036469	0.005341	0.13748	0.016632	0.080261	-0.021515	-0.082855	-0.003662	0.083771	0.007324	-0.099335	0.006714	-0.081329	0.026398	0.049133	0.002289	0.014343	-0.19028	-0.48584	0.046387	-0.1387	0.053864	-0.50995	-0.18494	-0.49439	-0.019531	-0.067749	-0.00473	0.22171	0.49088	-0.003052	-0.016479
55.447	0.016327	-0.009155	0.067902	0.010376	0.069427	-0.022125	-0.005646	-0.001221	0.13672	0.004425	-0.066071	-0.000458	-0.042114	0.039215	0.22095	0.009155	0.038757	-0.21698	-0.77606	-0.044403	-0.064545	-0.015259	-0.15793	-0.079651	-0.67764	-0.015869	-0.000916	0.005035	0.46906	0.35858	-0.00061	-0.016479
55.448	0.005188	0.019073	0.083313	0.020447	0.071259	-0.025177	0.006409	-0.00061	0.10254	0.023193	-0.051575	0.005493	-0.0383	0.030823	-0.003357	0.009155	0.033569	-0.21454	-0.39642	-0.12985	-0.036316	-0.040894	0.084076	0.12756	-0.40863	-0.004272	0.13351	-0.003357	0.11032	0.15274	0.003357	-0.014801
55.449	-0.002747	0.033722	0.059509	0.020142	-0.010834	-0.001526	0.018463	-0.001373	0.046234	0.048523	-0.032654	0.005798	-0.025635	0.016174	0.01236	0.009918	0.018311	-0.1799	-0.48035	-0.097656	-0.027466	0.007629	0.031738	0.14145	-0.076752	-0.005951	0.18341	-0.003662	-0.5159	0.11124	0.000305	-0.018005
55.45	-0.012512	0.027161	0.054016	0.010681	-0.079346	-0.04303	0.02533	0.005646	0.020142	0.004425	0.07309	0.001373	-0.058594	0.067902	0.076447	-0.000458	0.00885	-0.19577	0.47501	-0.08728	-0.023499	0.022125	-0.31555	0.12802	0.090027	-0.010681	0.22003	-0.003204	-0.33203	0.14404	0.006104	-0.012512
55.451	-0.014496	0.042877	0.03952	0.023346	-0.13001	-0.070038	0.020752	0.010681	0.013123	-0.006256	0.072632	0.005798	-0.041351	0.042877	-0.018921	-0.000458	0.034943	-0.16769	0.59738	0.003967	0.015564	-0.007782	-0.29282	0.055237	0.13794	-0.012512	0.11902	-0.002747	-0.32257	0.081024	-0.000916	-0.012665
55.452	-0.003204	0.006561	0.032501	0.004578	-0.11322	-0.061951	0.035553	0.005493	0.001984	0.001221	0.058594	0.002594	-0.007782	-0.025635	0.076447	-0.007019	0.062408	-0.21927	0.42862	0.26443	-0.025177	0.010071	-0.1178	0.036011	0.093842	-0.010071	-0.030975	-0.003815	-0.3331	-0.047607	-0.000763	-0.008392
55.453	-0.012512	0.05661	-0.006561	-0.019684	0.064392	0.000763	0.02533	0.010681	0.005188	0.011749	0.035095	-0.000153	0.000763	-0.098572	0.50812	0.000763	0.027618	-0.16708	-0.07843	0.22293	-0.2121	0.054779	0.030518	0.057068	0.027313	-0.001984	-0.16998	-0.002594	-0.037384	-0.12497	0.000305	-0.005341
55.454	-0.02243	0.016022	-0.024719	-0.009003	0.064087	0.044098	0.033264	0.01709	-0.006561	0.011292	0.048523	0.003357	0.027924	-0.12253	-0.29877	-0.004883	0.030823	-0.15945	0.45456	0.06546	-0.25772	0.04364	0.045776	-0.018311	0.003204	0	-0.043945	-0.002594	0.0177	-0.047913	-0.001526	-0.009308
55.455	-0.034637	0.028687	-0.08194	0.004578	0.041199	0.007019	0.051422	0.008698	-0.009918	0.015411	-0.02121	0.003052	0.035095	-0.088959	-0.44952	0.007324	0.061798	-0.14679	0.67825	0.047607	-0.044861	0.002747	0.044861	-0.068359	0.010376	-0.00061	0.29907	0.000305	0.27725	-0.007477	0.001373	-0.013733
55.456	-0.021057	0.018768	-0.081787	0.028076	0.012207	-0.019684	0.031891	0.005188	-0.007324	0.014648	0.027466	0.006714	-0.002594	-0.047607	-0.17425	0.005951	0.019836	-0.13733	0.38925	0.052948	0.10529	0.07782	0.002594	-0.067139	0.033264	-0.009613	0.34607	-0.002594	0.17517	-0.024872	-0.000916	-0.017853
55.457	-0.003815	0.032043	0.049438	0.005188	0.011292	-0.070953	0.039368	0.000305	-0.015564	0.008545	0.024109	0.006714	-0.011139	-0.034027	-0.13779	-0.002594	-0.005188	-0.20721	-0.15701	0.014038	0.1561	0.082397	0.048218	0.016022	0.021667	-0.009003	0.29724	-0.006714	0.053253	0.024872	0.001526	-0.020752
55.458	0.007629	-0.016479	0.074463	0.00946	0.07431	-0.11673	0.026703	-0.006866	0.016632	-0.004272	-0.055847	0.003204	-0.00885	-0.010376	-0.056	-0.009766	0.013123	-0.21896	0.07019	0.007935	0.28244	0.032043	0.063171	0.027771	0.050964	-0.017548	0.26916	-0.002136	-0.15732	0.18753	-0.001221	-0.018005
55.459	0.030212	0.016937	0.037994	0.012817	0.14114	-0.11963	0.010681	-0.006866	0.062561	-0.002136	-0.087891	0.007324	0.006561	-0.034027	0.005798	0.013428	0.016479	-0.22629	0.090027	0.007172	0.086517	0.035095	0.031281	0.080109	0.02533	-0.010223	0.20233	-0.002441	-0.18829	0.14389	-0.001526	-0.016632
55.46	0.025482	0.044861	0.012512	0.005188	0.11704	-0.043945	-0.032349	-0.009003	0.047302	-0.014954	-0.022888	0.006409	0.02533	-0.027924	0.0383	0.004425	-0.012054	-0.11108	-0.066681	-0.043945	-0.20569	0.088654	0.037842	0.11719	0.014038	-0.000458	0.018311	-0.005951	-0.15182	0.04303	0.001831	-0.022278
55.461	0.011749	0.027008	0.038757	0.009918	0.032043	0.032959	-0.021362	-0.009766	0.050659	-0.00885	0.081635	0.002747	0.02594	-0.017395	0.054016	-0.000153	-0.020447	-0.10757	-0.19409	-0.035706	0.021057	0.047455	0.14557	0.13321	-0.040588	-0.016785	-0.015717	-0.002747	-0.17166	0.008545	0	-0.013428
55.462	-0.000916	0.043182	0.025635	0.015717	-0.00946	0.058136	-0.006866	0.006409	0.048065	0.012512	0.016937	0.007019	-0.012512	0.014496	0.084381	-0.002441	-0.011139	-0.16174	0.49606	-0.03479	0.058594	0.033722	0.13168	0.018768	-0.06958	-0.010529	0.014343	-0.002289	-0.17334	0.037537	-0.000305	-0.022736
55.463	-0.016632	0.036316	0.02182	0.011444	-0.028992	0.069275	-0.010986	0.010376	0.034485	0.021667	-0.023346	0.004883	-0.029907	0.045776	0.018463	-0.007935	0.010529	-0.22766	0.40649	-0.01709	0.050354	0.054779	-0.034943	-0.16556	-0.10086	-0.00946	0.071564	-0.005493	-0.15106	0.037079	-0.00061	-0.019073
55.464	-0.015717	0.041046	-0.062866	-0.013428	-0.019684	0.088196	-0.023651	0.006256	0.026703	0.016632	0.005035	0.007629	-0.028534	0.043793	-0.06012	0.002594	0.033264	-0.12512	0.096436	-0.013428	0.011902	0.00061	-0.000305	-0.33142	-0.13168	-0.010071	0.089111	-0.003662	-0.10971	-0.012054	0.003052	-0.010376
55.465	-0.009766	0.049744	-0.11169	-0.006561	-0.016632	0.077515	-0.013733	0.006866	-0.020752	0.014801	-0.003967	0.00351	-0.026398	0.031891	-0.066223	-0.005798	0	-0.13138	0.097809	-0.032501	-0.004272	0.037537	-0.11871	-0.19394	-0.11597	-0.006409	0.090332	-0.006866	0.05722	-0.037842	0.001526	-0.00824
55.466	-0.00412	0.050659	-0.023804	0.005493	-0.039825	0.063324	-0.027008	0.00412	-0.038757	0.005493	0.017548	0.010529	-0.045166	0.017242	-0.054779	0.010071	-0.009766	-0.1236	-0.093384	-0.15015	-0.030212	0.058441	-0.25742	-0.032806	0.045471	-0.007629	0.1033	-0.001831	0.00351	-0.028534	-0.000916	-0.009766
55.467	-0.004578	0.054932	0.062561	0.011597	-0.13992	0.053101	-0.033722	0.000305	-0.016174	-0.011292	0.067291	0.005341	-0.039825	0.023651	-0.025787	0.000458	-0.001526	-0.12497	0.04715	-0.23224	-0.019379	0.045624	-0.19134	-0.033569	0.063782	-0.000305	0.13718	-0.006866	-0.1294	-0.050354	-0.001068	-0.020294
55.468	0.005341	0.011597	0.11292	0.007782	-0.22476	-0.009308	0.034332	0.025787	0.015411	-0.002899	0.15259	0.003204	-0.034943	0.036316	0.002441	-0.003052	0.036316	-0.17181	0.023041	-0.11322	-0.062714	0.002899	-0.037842	-0.09903	-0.019226	-0.002289	0.15595	-0.002136	-0.15595	-0.058441	-0.000305	-0.011292
